<svg xmlns="http://www.w3.org/2000/svg" viewBox="0 0 187.9 97.7"><defs><style>.cls-1,.cls-4,.cls-8{fill:#221714;}.cls-1,.cls-2,.cls-3,.cls-4{stroke:#221714;stroke-miterlimit:10;stroke-width:2.25px;}.cls-1,.cls-2{stroke-linecap:round;}.cls-2,.cls-3{fill:none;}.cls-5{fill:#fff;}.cls-6{fill:#b0bf79;}.cls-7{fill:#abb978;}</style></defs><g id="レイヤー_2" data-name="レイヤー 2"><g id="_ファーストビュー" data-name="①ファーストビュー"><path class="cls-1" d="M32.08,22a37.58,37.58,0,0,0,5.84,74.56,18.88,18.88,0,0,1,1-37.74A18.88,18.88,0,0,1,20,39.93,19.38,19.38,0,0,1,32.13,22"/><path class="cls-2" d="M38.89,58.81a18.88,18.88,0,0,1,1,37.74A37.76,37.76,0,0,0,51.14,23.09"/><path class="cls-3" d="M20,39.93A18.88,18.88,0,0,0,38.89,58.81"/><path class="cls-4" d="M57.77,77.7A18.88,18.88,0,1,0,37.92,96.55c.32,0,.64,0,1,0l1,0A18.87,18.87,0,0,0,57.77,77.7Z"/><path class="cls-5" d="M38,73.45c4.44,3,4.34,6.41,3.67,9a7.52,7.52,0,0,1-4.39,4.66,9,9,0,0,0,4.09-.22,8.41,8.41,0,0,0,5.38-3.61,6.08,6.08,0,0,0,.42-6.49,8.17,8.17,0,0,0-2.29-2.32c-1.83-1.22-4.92-2-6.88-1"/><path class="cls-5" d="M37.84,73.74C40.37,75.47,42,78,41.61,81.1a7.22,7.22,0,0,1-4.49,5.74c-.33.15-.12.6.17.63a11.94,11.94,0,0,0,5.27-.56,8.79,8.79,0,0,0,4.37-3.27A6.72,6.72,0,0,0,48,77.87a7.44,7.44,0,0,0-4-4.27c-1.86-.87-4.21-1.36-6.15-.44-.39.19-.05.76.34.58,2-.95,4.63-.18,6.39.94A5.8,5.8,0,0,1,47.43,81a7.65,7.65,0,0,1-4.31,5,12.42,12.42,0,0,1-2.94.86,11.19,11.19,0,0,1-2.89,0l.17.62a7.86,7.86,0,0,0,4.82-6.34c.43-3.39-1.38-6.06-4.1-7.92-.36-.24-.69.34-.34.58Z"/><path class="cls-6" d="M42.6,27.82a46.43,46.43,0,0,0-.18-8,5.43,5.43,0,0,0-3.51-4.14c-.75-.22-1.56-.23-2.32-.41a8.53,8.53,0,0,1-3.1-1.78c-2.44-2,.43-5.87,3.06-4.09.61.4,1.14,1,1.85,1.5.32.24,2.61,2,3.19,2.56.21-.9,3.26-11.92,9.62-12.86a1.61,1.61,0,0,1,.87,0,1.91,1.91,0,0,1,.56.83c1.09,4-1.56,9.41-6.92,13.07a6.93,6.93,0,0,0-1.84,1.9,6.42,6.42,0,0,0-1.05,2.79c-.25,2.27-.09,6.36-.23,8.59"/><path class="cls-7" d="M43.2,27.82c.15-4.73,1-11.94-5.29-12.89-1.55-.24-3.86-1-4.58-2.55a2.06,2.06,0,0,1,1.87-2.8c1.25,0,2.4,1.49,3.36,2.23a33,33,0,0,1,2.61,2.11.6.6,0,0,0,1-.26c1-4,3.07-9,6.62-11.41a6.25,6.25,0,0,1,1.74-.85,3.08,3.08,0,0,1,.85-.19c.72,0,.76.55.84,1.13a8.83,8.83,0,0,1-.83,4.87A15.68,15.68,0,0,1,48,11.93c-1.41,1.37-3.23,2.29-4.4,3.9a9.35,9.35,0,0,0-1.48,5.65c-.06,2.12,0,4.23-.1,6.34,0,.77,1.15.76,1.19,0C43.43,23.59,42.13,18,46,15.05c3.24-2.41,6.21-5.44,7.18-9.49A7.38,7.38,0,0,0,53.07,1c-.69-1.41-2.24-1-3.45-.5-2.74,1.09-4.63,3.7-6,6.21A28.59,28.59,0,0,0,41,13.34l1-.26c-.89-.83-1.88-1.56-2.85-2.3S37,8.67,35.62,8.43a3.25,3.25,0,0,0-3.36,4.48,6.92,6.92,0,0,0,3.87,2.89c.85.27,1.77.23,2.62.49a4.51,4.51,0,0,1,2.54,2.2,10.22,10.22,0,0,1,.79,4.9c0,1.48,0,3-.07,4.43,0,.77,1.16.77,1.19,0Z"/><circle class="cls-8" cx="42.61" cy="39.93" r="4.78"/><path class="cls-8" d="M95.26,60a12.7,12.7,0,0,1-2.86,2.45q.18,3,.18,3.66c0,.12,0,.26,0,.41a1.62,1.62,0,0,1-.49.1,3,3,0,0,1-.5,0,26.72,26.72,0,0,1-.36-4.42,21.88,21.88,0,0,1-1.71-2.36A13.11,13.11,0,0,1,88,56.92a2,2,0,0,1,.78-.4c0,.06.36.52,1,1.42.74,1.17,1.5,2.33,2.3,3.47a12.65,12.65,0,0,0,2.58-2.33,22.5,22.5,0,0,0,1.74-2.2,1.44,1.44,0,0,1,.73.43A8.81,8.81,0,0,1,95.26,60Z"/><path class="cls-8" d="M105.18,57.61a1.82,1.82,0,0,1-.27.47,4.35,4.35,0,0,0-2-.5,3.67,3.67,0,0,0-2.61,1,4.23,4.23,0,0,0-1.16,3,4.09,4.09,0,0,0,.92,2.8,3.74,3.74,0,0,0,2.82,1.23,3.85,3.85,0,0,0,1.13-.18,2.33,2.33,0,0,1,.28.88,3.53,3.53,0,0,1-1.41.36A4.84,4.84,0,0,1,99.13,65,5.47,5.47,0,0,1,98,61.41a5,5,0,0,1,1.48-3.54,5,5,0,0,1,3.42-1.37,5.28,5.28,0,0,1,2.39.65A1.21,1.21,0,0,1,105.18,57.61Zm2.19,6.8a4.25,4.25,0,0,1-2.08,1.53,1.85,1.85,0,0,1-.41-.87,4.64,4.64,0,0,0,1.53-1.3,3.78,3.78,0,0,0,.56-1.88,5.55,5.55,0,0,0-.29-1.79,4.94,4.94,0,0,0-1.09-1.51,1.19,1.19,0,0,1,.27-.41l.33-.27A4.79,4.79,0,0,1,108.12,62,4.39,4.39,0,0,1,107.37,64.41Z"/><path class="cls-8" d="M117.87,57.7c-1.09,0-2.19.06-3.28.06-1.8,0-3.59,0-5.36-.07a1.9,1.9,0,0,1-.06-.54,1.72,1.72,0,0,1,0-.45c1.15-.05,2.15-.08,3.05-.08,1.79,0,3.66.05,5.61.14a2,2,0,0,1,0,.48A1.89,1.89,0,0,1,117.87,57.7Zm-3.1,7.63c-.09.85-.69,1.29-1.77,1.32a5.72,5.72,0,0,1-2.63-.68,1.29,1.29,0,0,1,.26-.91,6.74,6.74,0,0,0,2.25.51.63.63,0,0,0,.72-.57c.07-1,.15-3.06.21-6.31a1.34,1.34,0,0,1,.49-.06,1.25,1.25,0,0,1,.54.09c0,.65,0,1.49,0,2.52C114.89,63.15,114.84,64.52,114.77,65.33Z"/><path class="cls-8" d="M128,63.7a1.82,1.82,0,0,1-.47-.27,4.2,4.2,0,0,0,.51-2,3.71,3.71,0,0,0-1-2.61A4.22,4.22,0,0,0,124,57.7a4.08,4.08,0,0,0-2.8.9A3.73,3.73,0,0,0,120,61.41a3.53,3.53,0,0,0,.17,1.13,2.38,2.38,0,0,1-.89.28,3.71,3.71,0,0,1-.35-1.41,4.82,4.82,0,0,1,1.67-3.79,5.46,5.46,0,0,1,3.61-1.08,5.05,5.05,0,0,1,3.53,1.5,4.93,4.93,0,0,1,1.35,3.43,5.2,5.2,0,0,1-.66,2.39A1.48,1.48,0,0,1,128,63.7Zm-6.81,2.16a4.26,4.26,0,0,1-1.52-2.09,1.78,1.78,0,0,1,.87-.4,4.64,4.64,0,0,0,1.3,1.53,3.76,3.76,0,0,0,1.87.57,5.56,5.56,0,0,0,1.79-.28A5,5,0,0,0,127,64.1a1.41,1.41,0,0,1,.4.27l.27.34a4.77,4.77,0,0,1-4.07,1.91A4.48,4.48,0,0,1,121.16,65.86Z"/><path class="cls-8" d="M140.57,66.63a5.43,5.43,0,0,1-3.16-1.17,1.68,1.68,0,0,1,.37-.75,5.61,5.61,0,0,0,2.81.9c1.35,0,2-.52,2.11-1.57,0-.78-.7-1.61-2.11-2.48,1.23-1.08,1.86-2,1.86-2.61,0-1-.74-1.44-2.18-1.46a6.42,6.42,0,0,0-3.45,1.23,72.13,72.13,0,0,0-.46,7.57,1.35,1.35,0,0,1-.43.06,1.87,1.87,0,0,1-.51-.08c0-.64,0-1.27,0-1.9a50.1,50.1,0,0,1,.6-7.69,2.51,2.51,0,0,1,.47,0,1.62,1.62,0,0,1,.5.12l0,.78a6.83,6.83,0,0,1,3.33-1c2.1,0,3.21.79,3.3,2.35A3.91,3.91,0,0,1,142,61.44c1.18.9,1.78,1.76,1.78,2.6C143.78,65.75,142.7,66.6,140.57,66.63Z"/><path class="cls-8" d="M150.26,57.76h-2.19c0,1.35-.12,3.93-.3,7.74.81,0,1.49.08,2,.12a1.7,1.7,0,0,1,.05.41,1.85,1.85,0,0,1-.08.49c-.45,0-.91,0-1.38,0-1.35,0-2.53,0-3.52-.12,0,0-.06-.18-.06-.41a3.2,3.2,0,0,1,0-.52c.71,0,1.34,0,1.88,0,0-1.56.1-4.14.31-7.76l-2-.13a3.06,3.06,0,0,1,0-.5,2.68,2.68,0,0,1,.05-.45h.7c.89,0,2.4.08,4.56.21a1.84,1.84,0,0,1,.05.44A1.53,1.53,0,0,1,150.26,57.76Z"/><path class="cls-8" d="M158.46,60a12.93,12.93,0,0,1-2.87,2.45q.18,3,.18,3.66c0,.12,0,.26,0,.41a1.62,1.62,0,0,1-.49.1,3,3,0,0,1-.5,0,26.72,26.72,0,0,1-.36-4.42,21.88,21.88,0,0,1-1.71-2.36,13.11,13.11,0,0,1-1.53-2.87,2,2,0,0,1,.78-.4c.05.06.36.52,1,1.42.74,1.17,1.5,2.33,2.3,3.47a12.65,12.65,0,0,0,2.58-2.33,22.5,22.5,0,0,0,1.74-2.2,1.43,1.43,0,0,1,.74.43A8.81,8.81,0,0,1,158.46,60Z"/><path class="cls-6" d="M164.11,65.52a2.24,2.24,0,0,1,.28-.46,4.31,4.31,0,0,0,1.94.52,3.67,3.67,0,0,0,2.63-1,4.3,4.3,0,0,0,1.2-2.94,4.12,4.12,0,0,0-.88-2.81,3.76,3.76,0,0,0-2.8-1.27,4.16,4.16,0,0,0-1.13.16,2.51,2.51,0,0,1-.27-.88,3.35,3.35,0,0,1,1.42-.34,4.85,4.85,0,0,1,3.77,1.7,5.49,5.49,0,0,1,1,3.62,5,5,0,0,1-1.54,3.52,5,5,0,0,1-3.44,1.31A5.13,5.13,0,0,1,164,66,1.21,1.21,0,0,1,164.11,65.52ZM162,58.69a4.27,4.27,0,0,1,2.11-1.5,1.8,1.8,0,0,1,.39.88A4.65,4.65,0,0,0,163,59.35a3.77,3.77,0,0,0-.58,1.87,5.57,5.57,0,0,0,.26,1.79,5.21,5.21,0,0,0,1.07,1.53,1.56,1.56,0,0,1-.27.4l-.34.27a4.8,4.8,0,0,1-1.87-4.1A4.36,4.36,0,0,1,162,58.69Z"/><path class="cls-8" d="M173.83,61.46c-.09,3.33-.12,5-.12,5.05a1.48,1.48,0,0,1-.51.06,1.82,1.82,0,0,1-.46,0c-.06-1.14-.08-2.1-.08-2.88,0-2.91.12-5.27.3-7.1a3.74,3.74,0,0,1,.5,0,2,2,0,0,1,.54.11C174,57,173.94,58.57,173.83,61.46ZM179,63.18c1.1,1.88,1.67,2.88,1.71,3a1.67,1.67,0,0,1-.75.47,17.21,17.21,0,0,1-2-3.27,9.1,9.1,0,0,1-1.18.07,5.54,5.54,0,0,1-2.31-.49,2,2,0,0,1,0-.45,1,1,0,0,1,.16-.48,6.28,6.28,0,0,0,2.15.39c2.23,0,3.36-.75,3.39-2.23,0-1-.69-1.68-2.06-2.16a11.94,11.94,0,0,0-3.21-.46,2.64,2.64,0,0,1,0-.44,1.6,1.6,0,0,1,.07-.49,11.49,11.49,0,0,1,3.86.55c1.65.69,2.48,1.7,2.48,3.05A2.9,2.9,0,0,1,179,63.18Z"/><path class="cls-8" d="M187.7,57.76h-2.2c0,1.35-.12,3.93-.3,7.74.81,0,1.49.08,2,.12a1.73,1.73,0,0,1,0,.41,2.31,2.31,0,0,1-.07.49c-.45,0-.92,0-1.38,0-1.36,0-2.54,0-3.53-.12-.05,0-.06-.18-.06-.41a3.2,3.2,0,0,1,0-.52c.71,0,1.34,0,1.88,0,0-1.56.1-4.14.31-7.76l-2-.13a3.06,3.06,0,0,1,0-.5,2.68,2.68,0,0,1,.05-.45h.7c.89,0,2.4.08,4.57.21a2,2,0,0,1,0,.93Z"/><path class="cls-8" d="M101.14,29.23l3.11.35a11.13,11.13,0,0,1-.14,1.65c-2.24,0-4.43-.06-6.59-.16-.24.4-.51.83-.78,1.32,2.24,0,3.83,0,4.81.11a6.76,6.76,0,0,1,0,.7V34a30.8,30.8,0,0,1-5.51.24h-.51c-.14.19-.24.35-.35.51a2.5,2.5,0,0,1-.33.51c3.78,0,6.46.06,8.08.11a5.35,5.35,0,0,1,0,.73v.78a75.42,75.42,0,0,1-9.34.27c-.32.49-.65,1-1,1.44a22.09,22.09,0,0,0-1.43,2.18,13.53,13.53,0,0,1-1.89,2.59,5.72,5.72,0,0,1-1.49-.86c1.16-1.86,2.3-3.64,3.43-5.37a19.79,19.79,0,0,1-2.67-.19,2.55,2.55,0,0,1-.11-.84,3.55,3.55,0,0,1,0-.78c1.11,0,2.43-.06,4-.06.22-.37.46-.72.7-1.08a12.16,12.16,0,0,1-1.8-.16,2,2,0,0,1-.11-.78,3.5,3.5,0,0,1,0-.76c.87,0,1.86,0,3,0,.32-.49.67-1,1-1.46q-3.19-.16-6.29-.57a5.74,5.74,0,0,1,.22-1.7c.84,0,1.67,0,2.48,0m1.87,0c1.83.08,3.67.19,5.48.33M97,42a2.89,2.89,0,0,1,.08.65,4,4,0,0,1-.06.62,18.45,18.45,0,0,1-2.94.16h-.57c0,1.81,0,3.32-.1,4.57.48,0,1.32,0,2.48.16a1.21,1.21,0,0,1,.16.67c0,.22,0,.41-.05.62a4.7,4.7,0,0,1-2,.33,12.12,12.12,0,0,1-2.4-.22,38.75,38.75,0,0,1-.16-4.29,23.84,23.84,0,0,1,.32-3.86,4,4,0,0,1,.84-.11,2.81,2.81,0,0,1,.94.16V42H97Zm1.37-2.7c1.16.08,2.41.16,3.7.27a16.48,16.48,0,0,1,.27,3.35,9.33,9.33,0,0,1-.24,2.67,5.41,5.41,0,0,1-2.94.52,31.13,31.13,0,0,1-4.35-.22,2.11,2.11,0,0,1-.11-.73,1.16,1.16,0,0,1,.16-.73c1.84,0,3.68-.11,5.51-.13a30.28,30.28,0,0,0-.19-3.16c-2.18-.06-4.59-.16-7.23-.38A7.3,7.3,0,0,1,93,39.11c1,0,2.16,0,3.43.08a6.18,6.18,0,0,1-.32-1.37,6.24,6.24,0,0,1,1.45-.3A12.14,12.14,0,0,1,98.33,39.3Zm7.19,6a16.8,16.8,0,0,1-1.22,2.75c.43.27,2.06,1.27,2.5,1.59a3.25,3.25,0,0,1-1,1.3,38.29,38.29,0,0,1-6.06-3.38,6.72,6.72,0,0,1,.89-1.35,15.92,15.92,0,0,1,1.92.9A16.12,16.12,0,0,1,104,44.59,4.53,4.53,0,0,1,105.52,45.3Zm2.21-4.54a7.16,7.16,0,0,1-1.24,1.05,14.13,14.13,0,0,1-3.57-4,9.43,9.43,0,0,1,1.3-1.08A27,27,0,0,1,107.73,40.76Z"/><path class="cls-8" d="M125.23,34.52c.11-1.94.24-3.62.41-5.07a8.52,8.52,0,0,1,1-.06,2.84,2.84,0,0,1,.89.16c0,1.62,0,3.3-.08,5,2,0,4.1.05,6.13.11v.86a4.39,4.39,0,0,1-.08.95c-2.24,0-4.27,0-6.11,0,0,1.32-.1,2.65-.16,4,1.3.08,2.68.16,4.08.27a11,11,0,0,1-.14,1.67c-1.37,0-2.72,0-4-.08l-.24,3.89c1.51.05,3.1.13,4.8.24a9.21,9.21,0,0,1-.16,1.67c-3.48,0-8.21-.06-11.61-.33v-.93a4.5,4.5,0,0,1,0-.9c1.18,0,3.75.14,5.08.17,0-1.38,0-2.68,0-3.92-1.24,0-2.45-.16-3.64-.3V41a3.94,3.94,0,0,1,0-.75c1.14,0,2.35,0,3.62.08,0-1.41.06-2.7.11-3.89-1.92,0-3.62,0-5.08,0a3.47,3.47,0,0,1-.08-.94,2.92,2.92,0,0,1,.14-1Z"/><path class="cls-8" d="M145,38.92c0,2.14.08,4.27.13,6.38,1.14.05,3.13.1,6,.1,2.62,0,4.48,0,5.61-.1.06-3.68.09-5.92.09-6.75,0-2.68-.06-5-.17-6.89-3.1,0-7.22-.2-10.19-.47,0-.57-.12-1.1-.07-1.64,6.16.09,11,.19,12.1.36.22,3.78.32,6.64.32,8.64,0,4.56-.16,7.31-.43,8.26a43.43,43.43,0,0,1-7.15.32,72.33,72.33,0,0,1-7.86-.32,52.25,52.25,0,0,1-.38-7.1c0-3.08.11-6.08.32-9l1.62,0c0,2.16,0,4.32.06,6.48"/><path class="cls-8" d="M172.36,36.74c0-1.14,0-2.3.13-3.49a4.84,4.84,0,0,1,.89-.1,4.29,4.29,0,0,1,.89.1c.06,1.3.11,2.49.14,3.57l4.08.13v.76a4.49,4.49,0,0,1-.11.94c-1.33,0-2.65,0-3.94-.08v2.08a31.06,31.06,0,0,0,3.24,1,7.26,7.26,0,0,1-.27,1.67,12.67,12.67,0,0,1-3-.73c-.06,1.68-.11,3.22-.16,4.59a2.82,2.82,0,0,1-.89.11,1.86,1.86,0,0,1-.73-.11c-.11-1.35-.19-2.78-.22-4.26a24.49,24.49,0,0,1-4.29,1.72,3.13,3.13,0,0,1-.6-1.29,19.74,19.74,0,0,1,4.84-2.57c0-.7,0-1.4,0-2.1v-.11c-1.51-.06-3-.11-4.46-.19a2.72,2.72,0,0,1-.1-.89,1.64,1.64,0,0,1,.21-.84C169.44,36.66,170.9,36.68,172.36,36.74Zm7.52,6.66a30.55,30.55,0,0,1,.24-6.76,7.17,7.17,0,0,1,2.95-.49,15.31,15.31,0,0,1,4.45.35c.46,1.79.2,3.56.38,6-.59.08-.93,0-1.53,0-.34-1.61-.22-2.8-.43-4.57-1.52,0-2.95,0-4.24.05,0,1,0,2.21,0,3.78a30.52,30.52,0,0,1,4.13.29c0,.52.08,1.08,0,1.55C183.85,43.63,181.5,43.55,179.88,43.4Z"/><circle class="cls-8" cx="150.83" cy="38.34" r="2.66"/><path class="cls-8" d="M97.62,17.09c4,2.66,3.87,5.71,3.27,8A6.69,6.69,0,0,1,97,29.28a8,8,0,0,0,3.65-.19,7.49,7.49,0,0,0,4.79-3.22,5.43,5.43,0,0,0,.38-5.78,7.35,7.35,0,0,0-2-2.07c-1.63-1.09-4.38-1.81-6.13-.93"/><circle class="cls-8" cx="92.91" cy="26.8" r="2.66"/><path class="cls-8" d="M112.52,30.88c2.79,1.87,2.72,4,2.3,5.65a4.72,4.72,0,0,1-2.75,2.92,5.65,5.65,0,0,0,2.57-.14A5.29,5.29,0,0,0,118,37.05a3.83,3.83,0,0,0,.26-4.07,5.23,5.23,0,0,0-1.44-1.45c-1.14-.77-3.08-1.28-4.31-.65"/><path class="cls-8" d="M174.9,24.14c-.28,3.35-2.18,4.33-3.82,4.76a4.69,4.69,0,0,1-3.89-1,5.59,5.59,0,0,0,1.37,2.17,5.25,5.25,0,0,0,3.62,1.85,3.81,3.81,0,0,0,3.68-1.75,5.35,5.35,0,0,0,.57-2c.11-1.38-.39-3.32-1.53-4.09"/><circle class="cls-6" cx="166.35" cy="61.58" r="4.37"/><path d="M91.35,86.2c-.25,0-.37-.16-.37-.49s.14-.49.42-.49h5.24v-.59H95.38c-.57,0-.84-.27-.84-.79V80.23a.65.65,0,0,1,.29-.54.84.84,0,0,1,.5-.2h1.22a2.15,2.15,0,0,1,.66-1.24.43.43,0,0,1,.28-.11h-2v.63q0,.45-.54.45h-.09c-.49,0-.73-.15-.73-.45v-.63h-3c-.24,0-.36-.16-.36-.47s.13-.49.39-.49h3v-.47c0-.29.21-.43.64-.43s.72.15.72.45v.45h3.8v-.47c0-.29.22-.43.67-.43s.71.15.71.45v.45h3c.23,0,.34.17.34.53s-.14.43-.4.43h-2.94v.63c0,.28-.18.43-.52.43h-.09c-.51,0-.77-.15-.77-.44v-.62H97.64a.43.43,0,0,1,.36.47,2,2,0,0,1-.19.88H99.5a.64.64,0,0,1,.72.73v3.66c0,.49-.27.75-.82.75H98.07v.59h5.26c.24,0,.36.18.36.55s-.13.43-.4.43H99A14.41,14.41,0,0,0,104,88.57a.36.36,0,0,1,.27.39c0,.3-.18.45-.52.45a6.84,6.84,0,0,1-5.71-2.64v2.28c0,.36-.25.52-.75.52s-.68-.16-.68-.5V86.76a6.41,6.41,0,0,1-5.44,2.57c-.34,0-.51-.16-.51-.49a.35.35,0,0,1,.26-.36,12.59,12.59,0,0,0,4.78-2.28Zm2.45-3.69c.31,0,.46.13.46.4s-.37.7-1.1,1.15a4,4,0,0,1-2,.7c-.31,0-.46-.13-.46-.42s.4-.65,1.22-1.14a4.18,4.18,0,0,1,1.83-.69Zm-.52-2.22c.58.49.88.89.88,1.18s-.15.41-.47.41A3.79,3.79,0,0,1,92,81q-1.14-.82-1.14-1.32c0-.28.19-.42.55-.42A3.43,3.43,0,0,1,93.28,80.29Zm5.55,1.28V80.38H95.9v1.19Zm-2.93.84V83.7h2.93V82.41Zm7.3.92c.67.45,1,.77,1,1s-.17.44-.49.44a4,4,0,0,1-2-.73c-.79-.49-1.17-.87-1.16-1.17s.18-.39.51-.39A4.1,4.1,0,0,1,103.2,83.33Zm.8-3.71c0,.31-.35.74-1.08,1.28a3.53,3.53,0,0,1-1.81.92c-.29,0-.44-.14-.44-.41s.32-.78,1-1.3a3.51,3.51,0,0,1,1.79-.92C103.83,79.19,104,79.32,104,79.62Z"/><path d="M109.24,85a9.89,9.89,0,0,1-.66,3.21c-.36.82-.69,1.22-1,1.22s-.46-.12-.46-.37a.56.56,0,0,1,0-.15,16.3,16.3,0,0,0,.73-5.46V78.86l0-.16v-.38a6.08,6.08,0,0,0,0-.7V77.5c0-.47.21-.7.66-.7h2.89a.6.6,0,0,1,.67.69v.65s0,.15,0,.36V81l0,.28v3.32a9.67,9.67,0,0,1-.55,3.7c-.34.77-.64,1.16-.94,1.16s-.45-.12-.45-.37c0,0,0-.09,0-.15a14.81,14.81,0,0,0,.55-3.91Zm1.53-7.27h-1.5v2.88h1.51Zm.09,6.35v-.31c0-.24,0-.47,0-.66s0-.64,0-1v-.29c0-.14,0-.23,0-.23v-.11h-1.5v.45c0,.36,0,.67,0,.95s0,.63,0,.85v.33Zm3.53-6.23a2.72,2.72,0,0,1-.43-1.29.38.38,0,0,1,.43-.41.62.62,0,0,1,.34.09,2.49,2.49,0,0,1,1,1.61h1.85a2.54,2.54,0,0,1,.66-1.24,1.1,1.1,0,0,1,.68-.41c.28,0,.43.13.43.41a2.24,2.24,0,0,1-.46,1.24h1.49c.24,0,.34.18.34.55s-.12.42-.38.42h-3v.8H120c.24,0,.36.18.36.56a.38.38,0,0,1-.41.43h-2.57v.82h3.29c.24,0,.36.18.36.53s-.14.42-.41.42h-.87a2.46,2.46,0,0,1-.6,1.55h1.43c.22,0,.34.18.34.55s-.13.43-.39.43H112.8c-.24,0-.35-.16-.35-.49s.12-.49.39-.49h1.28a4.74,4.74,0,0,1-.61-1.55h-.68q-.36,0-.36-.48c0-.31.13-.47.4-.47H116v-.82h-2.51c-.24,0-.36-.17-.36-.49s.14-.5.41-.5H116v-.8H112.8c-.24,0-.35-.15-.35-.48s.12-.49.39-.49ZM113.85,89a.65.65,0,0,1-.73-.73V86.07a.63.63,0,0,1,.26-.46.77.77,0,0,1,.52-.21h5.38a.67.67,0,0,1,.49.25.75.75,0,0,1,.22.5v2.16a.65.65,0,0,1-.74.73Zm4.76-2.75H114.5v1.79h4.11Zm-3.86-3.93a3.43,3.43,0,0,1,.45,1.55H116V82.36ZM118,83.91a4.06,4.06,0,0,1,.67-1.55h-1.34v1.55Z"/><path d="M127.37,82.3a7.86,7.86,0,0,1-3.46,1.1.32.32,0,0,1-.36-.37.44.44,0,0,1,.26-.45c.19-.07.52-.22,1-.43.87-.41,1.52-.76,1.94-1a1,1,0,0,0,.16-.11L127,81l.4-.22,1-.61a13.1,13.1,0,0,0,1.81-1.36.71.71,0,0,1,.47-.13.64.64,0,0,1,.47.2,11.19,11.19,0,0,0,2.69,1.85l.64.37a.5.5,0,0,0,.12.08l.08.06.63.34c.91.48,1.64.84,2.19,1.06q.24.09.24.45c0,.25-.11.37-.33.37a7.9,7.9,0,0,1-3.34-1,11.42,11.42,0,0,1-3.44-2.66A11.39,11.39,0,0,1,127.37,82.3Zm1.49,3a3.52,3.52,0,0,1-1.37,2.26A4.78,4.78,0,0,1,124.21,89c-.28,0-.42-.14-.42-.39s.2-.46.58-.64a10.93,10.93,0,0,0,3.59-3,.53.53,0,0,1,.41-.23C128.69,84.71,128.86,84.89,128.86,85.27Zm-4.52-6.92c-.23,0-.34-.15-.34-.44s.14-.5.4-.5h2.67V77c0-.3.21-.45.66-.45s.71.15.71.46v.4h4.29V77c0-.3.23-.45.67-.45s.72.15.72.46v.4h2.75c.24,0,.35.17.35.53s-.12.41-.39.41h-2.71V79q0,.45-.63.45c-.5,0-.76-.15-.76-.46v-.66h-4.29V79c0,.3-.25.45-.74.45s-.63-.15-.63-.47v-.67Zm.87,5.87c-.24,0-.36-.15-.36-.44s.15-.51.42-.51h4.63V82c0-.28.23-.41.66-.41s.79.16.79.47v1.24h4.5c.22,0,.34.18.34.52s-.13.43-.39.43h-4.45V89c0,.28-.2.42-.58.42-.59,0-.87-.17-.87-.48V84.22Zm8.37,1A9.65,9.65,0,0,0,136.84,88c.38.19.57.4.57.65s-.15.41-.46.41a4.53,4.53,0,0,1-3.11-1.36,5.14,5.14,0,0,1-1.08-1.4,2.51,2.51,0,0,1-.36-1c0-.33.18-.49.56-.49C133.12,84.76,133.33,84.91,133.58,85.22Z"/><path d="M151,87.35c0,1.39-.84,2.09-2.51,2.09-.41,0-.61-.17-.61-.49a.42.42,0,0,1,.36-.44.64.64,0,0,0,.22,0s0,0,.06,0h.06l.05,0,.1,0c.57-.11.85-.53.85-1.21l0-1.09h-9q-.36,0-.36-.48c0-.34.13-.52.42-.52h8.91v-.73h-7.33c-.57,0-.85-.25-.85-.79V79.8c0-.51.28-.78.86-.78h4.1v-.88h-5.54c-.26,0-.39-.14-.39-.47s.15-.49.43-.49h5.5v-.6c0-.21.22-.31.68-.31s.72.1.72.32v.59H153c.25,0,.37.17.37.53s-.13.43-.42.43h-5.18V79h3.74c.57,0,.83.26.83.75v3.81c0,.54-.29.79-.92.79H151v.73h2.41c.25,0,.37.21.37.61s-.13.39-.41.39H151Zm-5.25-.16c.82.48,1.22.86,1.22,1.19a.36.36,0,0,1-.4.4,5.16,5.16,0,0,1-2.19-.65c-1.13-.52-1.68-1-1.68-1.45,0-.27.15-.4.45-.4A5.55,5.55,0,0,1,145.7,87.19ZM142.83,80v1.22h3.5V80Zm0,2.08v1.42h3.5V82Zm4.9-.86h3.11V80h-3.11Zm0,.86v1.42h3.11V82Z"/><path d="M158.47,82.6v3.07a7.28,7.28,0,0,1-.28,2.4,3.62,3.62,0,0,1-.75,1.16l-.06.07,0,0a.63.63,0,0,1-.46.18c-.32,0-.47-.12-.47-.37a.72.72,0,0,1,.12-.36,4.57,4.57,0,0,0,.45-2.19l0-8.94c0-.61.29-.92.87-.92h3.88a.72.72,0,0,1,.82.82v4.23c0,.55-.3.82-.88.82Zm0-4.92v1.46h2.67V77.68Zm0,2.4v1.55h2.67V80.08Zm6.21,2.5c-.52,0-.77-.26-.77-.83V77.52a.71.71,0,0,1,.82-.79h3.72c.57,0,.85.3.85.89V87a3.81,3.81,0,0,0,.39,1.68l.05.08a1.43,1.43,0,0,1,.13.4c0,.25-.15.37-.46.37s-.67-.27-1-.8a6.46,6.46,0,0,1-.58-3.07V84.36c0-.35,0-.67,0-1a2.42,2.42,0,0,1,0-.38v-.41Zm.67-4.9v1.46h2.54V77.68Zm0,2.4v1.54h2.54V80.08Z"/><path d="M186.2,78.8h-.07l-11,0a26.63,26.63,0,0,1,.37,4,11.49,11.49,0,0,1-.87,4.77c-.52,1.15-1,1.73-1.32,1.73s-.58-.15-.58-.46a.25.25,0,0,1,.06-.17l0,0s0,0,0,0q1.31-1.84,1.3-8.1c0-.64,0-1.22-.06-1.74,0-.21,0-.32,0-.35a.56.56,0,0,1,.4-.56h5.17V76.64c0-.27.23-.39.69-.39s.76.12.76.39v1.19h5.16a.47.47,0,0,1,.38.52v.05C186.54,78.67,186.41,78.8,186.2,78.8Zm-6.06.6c0-.3.25-.47.74-.47s.75.17.75.48V81L186,81c.24,0,.36.19.36.56s-.14.4-.42.4h-4.26v1.86h3.1a.73.73,0,0,1,.82.84v3.6a.72.72,0,0,1-.82.81h-7.65c-.53,0-.8-.29-.8-.87v-3.5a.77.77,0,0,1,.86-.88h3Zm-2.37,5.36V88h6.32V84.76Z"/></g></g></svg>