<svg xmlns="http://www.w3.org/2000/svg" xmlns:xlink="http://www.w3.org/1999/xlink" viewBox="0 0 348.92 130.93"><defs><style>.cls-1{fill:none;}.cls-2{clip-path:url(#clip-path);}.cls-3{opacity:0.7;}.cls-4{fill:url(#名称未設定グラデーション_15);}.cls-5{fill:url(#名称未設定グラデーション_15-2);}.cls-6{fill:url(#名称未設定グラデーション_15-3);}.cls-7{fill:url(#名称未設定グラデーション_15-4);}.cls-8{fill:url(#名称未設定グラデーション_15-5);}.cls-9{opacity:0.65;}.cls-10{fill:url(#名称未設定グラデーション_15-6);}.cls-11{fill:url(#名称未設定グラデーション_13);}.cls-12{font-size:37px;font-family:KozGoPro-Bold-83pv-RKSJ-H, Kozuka Gothic Pro;}.cls-12,.cls-15{fill:#1a242f;}.cls-13{letter-spacing:0em;}.cls-14{letter-spacing:0em;}.cls-15{font-size:30px;font-family:KozGoPro-Medium-83pv-RKSJ-H, Kozuka Gothic Pro;}.cls-16{letter-spacing:-0.02em;}.cls-17{letter-spacing:-0.03em;}.cls-18{letter-spacing:-0.07em;}.cls-19{letter-spacing:-0.14em;}.cls-20{letter-spacing:-0.29em;}</style><clipPath id="clip-path" transform="translate(-8 -7.23)"><rect class="cls-1" width="355" height="149"/></clipPath><linearGradient id="名称未設定グラデーション_15" x1="72.85" y1="17.71" x2="81" y2="17.71" gradientUnits="userSpaceOnUse"><stop offset="0" stop-color="#c49312"/><stop offset="0.63" stop-color="#c7a98a"/><stop offset="1" stop-color="#c7aa8e"/></linearGradient><linearGradient id="名称未設定グラデーション_15-2" x1="8" y1="61.72" x2="30.91" y2="61.72" xlink:href="#名称未設定グラデーション_15"/><linearGradient id="名称未設定グラデーション_15-3" x1="8.78" y1="85.59" x2="31.23" y2="85.59" xlink:href="#名称未設定グラデーション_15"/><linearGradient id="名称未設定グラデーション_15-4" x1="19.6" y1="37.68" x2="39.89" y2="37.68" xlink:href="#名称未設定グラデーション_15"/><linearGradient id="名称未設定グラデーション_15-5" x1="48.64" y1="23.09" x2="59.26" y2="23.09" xlink:href="#名称未設定グラデーション_15"/><linearGradient id="名称未設定グラデーション_15-6" x1="42.05" y1="92.41" x2="176.91" y2="92.41" gradientTransform="matrix(1.03, 0, 0, 0.86, -3.57, 10.21)" xlink:href="#名称未設定グラデーション_15"/><linearGradient id="名称未設定グラデーション_13" x1="45.02" y1="95.06" x2="177.82" y2="95.06" gradientTransform="matrix(1.03, 0, 0, 0.86, -3.57, 10.21)" gradientUnits="userSpaceOnUse"><stop offset="0" stop-color="#c49312"/><stop offset="1" stop-color="#c7aa8e"/></linearGradient></defs><g id="レイヤー_2" data-name="レイヤー 2"><g id="_導入" data-name="★導入"><g class="cls-2"><g class="cls-3"><path class="cls-4" d="M74.54,28.18h-.18c-.93,0-1.6-.4-1.5-.8L77.63,7.89c.1-.4.9-.7,1.86-.65s1.6.4,1.5.8L76.22,27.53C76.12,27.91,75.39,28.18,74.54,28.18Z" transform="translate(-8 -7.23)"/><path class="cls-5" d="M30.07,66.37H30A176.39,176.39,0,0,1,10.5,60.85l-1.8-.57c-.46-.15-.76-1-.69-1.87s.5-1.49,1-1.33l1.79.58a178.39,178.39,0,0,0,19.39,5.48c.46.09.8.89.75,1.78S30.5,66.37,30.07,66.37Z" transform="translate(-8 -7.23)"/><path class="cls-6" d="M9.51,92c-.36,0-.67-.64-.72-1.52s.21-1.89.61-2a193.72,193.72,0,0,0,21-9.21c.39-.21.78.42.86,1.39s-.17,1.91-.56,2.11A194.14,194.14,0,0,1,9.62,92Z" transform="translate(-8 -7.23)"/><path class="cls-7" d="M38.55,45.09l-.08,0c-5.44-2.75-10.53-6.17-17-10.49l-1.54-1c-.4-.26-.47-1.19-.16-2.08s.88-1.4,1.27-1.12l1.55,1C29,35.68,34.1,39.08,39.5,41.81c.41.2.51,1.1.23,2S39,45.19,38.55,45.09Z" transform="translate(-8 -7.23)"/><path class="cls-8" d="M58.27,32.93l-.15.1c-.77.52-1.52.63-1.68.25l-7.77-18.5c-.16-.38.31-1.1,1.11-1.63s1.52-.63,1.68-.25l7.77,18.5C59.38,31.76,59,32.42,58.27,32.93Z" transform="translate(-8 -7.23)"/></g><g class="cls-9"><path class="cls-10" d="M137,133.31c14.92-5.68,23.48-12,33-20.59a32.78,32.78,0,0,0,5.62-7.11c5.18-7.93,3.52-17.43-.27-25.76-4-8.76-6.37-18.12-16.9-24.43-7.33-4.4-17-7-26.79-8.47s-19.94-1.74-30-2.05c-5.46-.16-11.07-.32-16.21.8C80,46.9,72.37,48.8,68.09,51.29c-10.33,6-17.79,12.94-23.22,21.13a30.48,30.48,0,0,0-4.7,14.36,24.87,24.87,0,0,0,1.44,12.06,44,44,0,0,0,5.26,8.45l7.32,10c2.34,3.21,4.83,6.54,9.2,8.78,3.27,1.67,7.32,2.57,11.29,3.45,10.3,2.28,20.68,4.57,31.44,5.61s21.91.63,31.81-2.08" transform="translate(-8 -7.23)"/></g><path class="cls-11" d="M136.27,135.74c15.24-3.35,25.38-12.52,34.51-21.18a40,40,0,0,0,6.55-7.29c5-8,1.65-17.1-2-25.46-3.82-8.79-8.31-18-18.42-24.29-7-4.41-16.29-7.05-25.74-8.48S112,47.3,102.37,47c-5.24-.16-10.64-.31-15.57.81C81.5,49,74.2,50.93,70.09,53.43c-9.93,6-17.11,13-22.33,21.24A31.64,31.64,0,0,0,43.23,89.1a25.85,25.85,0,0,0,1.38,12.1,45.06,45.06,0,0,0,5,8.49l7,10.08c2.24,3.23,4.63,6.57,8.82,8.81,3.14,1.67,7,2.58,10.85,3.46,9.89,2.28,19.86,4.57,30.2,5.61s21,.61,30.56-2.12" transform="translate(-8 -7.23)"/><text class="cls-12" transform="translate(49.44 101.46)"><tspan class="cls-13">薬</tspan><tspan class="cls-14" x="37.03" y="0">膳</tspan><tspan x="73.96" y="0">茶</tspan></text><text class="cls-15" transform="translate(185.53 101.15)"><tspan class="cls-16">で</tspan><tspan class="cls-17" x="29.37" y="0">整</tspan><tspan class="cls-18" x="58.46" y="0">え</tspan><tspan class="cls-19" x="86.42" y="0">よ</tspan><tspan class="cls-20" x="112.1" y="0">う</tspan><tspan x="133.39" y="0">！</tspan></text></g></g></g></svg>