<svg xmlns="http://www.w3.org/2000/svg" xmlns:xlink="http://www.w3.org/1999/xlink" viewBox="0 0 413.66 119.97"><defs><style>.cls-1{fill:none;}.cls-2{clip-path:url(#clip-path);}.cls-3{fill:url(#名称未設定グラデーション_22);}.cls-4{fill:#1f556f;}.cls-5{fill:url(#名称未設定グラデーション_22-2);}.cls-6{fill:url(#名称未設定グラデーション_22-3);}.cls-7{writing-mode:tb;text-orientation:upright;glyph-orientation-vertical:0deg;}.cls-7,.cls-8{font-size:30px;fill:#1a242f;font-family:KozGoPr6N-Medium-83pv-RKSJ-H, Kozuka Gothic Pr6N;}.cls-9{letter-spacing:-0.13em;}.cls-10{letter-spacing:-0.14em;}.cls-11{letter-spacing:-0.08em;}.cls-12{letter-spacing:-0.07em;}.cls-13{letter-spacing:-0.21em;}.cls-14{font-size:38px;fill:#fff;font-family:KozGoPr6N-Bold-83pv-RKSJ-H, Kozuka Gothic Pr6N;letter-spacing:0.07em;}</style><clipPath id="clip-path" transform="translate(-3.98 -4)"><rect class="cls-1" width="422" height="128"/></clipPath><linearGradient id="名称未設定グラデーション_22" x1="208.62" y1="17.56" x2="242.45" y2="17.56" gradientUnits="userSpaceOnUse"><stop offset="0.26" stop-color="#0071bc"/><stop offset="1" stop-color="#1f556f"/></linearGradient><linearGradient id="名称未設定グラデーション_22-2" x1="54.02" y1="66.5" x2="204.84" y2="66.5" xlink:href="#名称未設定グラデーション_22"/><linearGradient id="名称未設定グラデーション_22-3" x1="209.93" y1="48.85" x2="235.72" y2="48.85" xlink:href="#名称未設定グラデーション_22"/></defs><g id="レイヤー_2" data-name="レイヤー 2"><g id="_導入" data-name="★導入"><g class="cls-2"><path class="cls-3" d="M208.62,31.12c2.81-11.31,11.71-21.93,22.63-26A13.32,13.32,0,0,1,237.07,4a6,6,0,0,1,4.87,3c1.53,3.05-.66,6.62-3,9.12-7.86,8.41-18.92,13.42-30.33,15" transform="translate(-3.98 -4)"/><polygon class="cls-4" points="51.02 50.5 108.28 25.42 181.35 32.94 203.07 42.97 207.02 75.58 201.09 100.65 72.74 108.18 51.02 88.11 51.02 50.5"/><polygon class="cls-5" points="54.02 50.94 109.38 27 180.02 34.18 201.03 43.76 204.84 74.88 199.12 98.82 75.02 106 54.02 86.85 54.02 50.94"/><path class="cls-6" d="M209.93,44.72c5.9-.89,11.17-1.94,17.09-1.18,2.33.3,4.76.78,6.58,2.26s2.8,4.26,1.57,6.26-3.73,2.36-6,2.36c-7.81,0-14-4-19.27-9.7" transform="translate(-3.98 -4)"/><text class="cls-7" transform="translate(14.51 29.11) rotate(-14.72)">こんな</text><text class="cls-8" transform="translate(224.45 91.68)"><tspan class="cls-9">あ</tspan><tspan class="cls-10" x="26.22" y="0">り</tspan><tspan class="cls-11" x="52.1" y="0">ま</tspan><tspan class="cls-12" x="79.71" y="0">せん</tspan><tspan class="cls-13" x="135.37" y="0">か</tspan><tspan x="159.21" y="0">？</tspan></text><text class="cls-14" transform="translate(74.26 84.14)">お悩み</text></g></g></g></svg>